<?xml version="1.0" encoding="UTF-8" standalone="no"?>
<svg
   xmlns:dc="http://purl.org/dc/elements/1.1/"
   xmlns:cc="http://creativecommons.org/ns#"
   xmlns:rdf="http://www.w3.org/1999/02/22-rdf-syntax-ns#"
   xmlns:svg="http://www.w3.org/2000/svg"
   xmlns="http://www.w3.org/2000/svg"
   xmlns:sodipodi="http://sodipodi.sourceforge.net/DTD/sodipodi-0.dtd"
   xmlns:inkscape="http://www.inkscape.org/namespaces/inkscape"
   width="120"
   height="120"
   viewBox="0 0 120 120"
   version="1.1"
   id="svg53"
   sodipodi:docname="background-elipse.svg"
   inkscape:version="0.92.5 (2060ec1f9f, 2020-04-08)">
  <metadata
     id="metadata59">
    <rdf:RDF>
      <cc:Work
         rdf:about="">
        <dc:format>image/svg+xml</dc:format>
        <dc:type
           rdf:resource="http://purl.org/dc/dcmitype/StillImage" />
        <dc:title></dc:title>
      </cc:Work>
    </rdf:RDF>
  </metadata>
  <defs
     id="defs57" />
  <sodipodi:namedview
     pagecolor="#ffffff"
     bordercolor="#666666"
     borderopacity="1"
     objecttolerance="10"
     gridtolerance="10"
     guidetolerance="10"
     inkscape:pageopacity="0"
     inkscape:pageshadow="2"
     inkscape:window-width="1084"
     inkscape:window-height="655"
     id="namedview55"
     showgrid="false"
     inkscape:zoom="1.9666667"
     inkscape:cx="39.972173"
     inkscape:cy="60"
     inkscape:window-x="0"
     inkscape:window-y="0"
     inkscape:window-maximized="0"
     inkscape:current-layer="Group_1203" />
  <g
     id="Group_1203"
     data-name="Group 1203"
     transform="translate(-384 -1392)">
    <path
       sodipodi:type="spiral"
       style="fill:none;fill-rule:evenodd;stroke:#035264;stroke-width:1.00020003;stroke-miterlimit:4;stroke-dasharray:none;stroke-opacity:1"
       id="path868"
       sodipodi:cx="409.93219"
       sodipodi:cy="1420.983"
       sodipodi:expansion="1"
       sodipodi:revolution="2.9388399"
       sodipodi:radius="30.618446"
       sodipodi:argument="-17.845026"
       sodipodi:t0="0.061352599"
       d="m 408.92382,1422.568 c -2.13397,0.3368 -3.13802,-2.3039 -2.77415,-3.9915 0.71933,-3.3361 4.63464,-4.6074 7.58717,-3.5736 4.5089,1.5789 6.12545,7.0053 4.37302,11.1829 -2.38663,5.6895 -9.38856,7.6614 -14.7786,5.1725 -6.87546,-3.1749 -9.20601,-11.7773 -5.97189,-18.3743 3.95366,-8.0648 14.16895,-10.7556 21.97003,-6.7714 9.25607,4.7273 12.30803,16.5624 7.57076,25.5658 -5.49779,10.4487 -18.957,13.8625 -29.16146,8.3702 -11.64236,-6.2662 -15.41834,-21.3524 -9.16963,-32.7572 7.03323,-12.8366 23.74842,-16.9751 36.35288,-9.9691 14.03142,7.7993 18.5327,26.1449 10.76852,39.9486 -0.26831,0.4771 -0.54947,0.9468 -0.84303,1.4087"
       transform="matrix(2.1005254,0,0,2.3011705,-422.21304,-1811.7573)" />
  </g>
</svg>
